<svg xmlns="http://www.w3.org/2000/svg" viewBox="0 0 122 32">
    <path
            d="M 19.803 31.482 L 0 31.482 L 4.951 0.56 L 21.157 0.56 L 20.884 2.264 C 22.01 1.599 23.219 1.083 24.479 0.73 C 26.212 0.231 28.03 0.006 29.888 0.006 C 31.801 0.006 33.664 0.255 35.413 0.859 C 37.067 1.43 38.588 2.263 39.887 3.416 C 40.208 3.7 40.508 3.998 40.788 4.31 C 41.222 3.871 41.688 3.464 42.182 3.094 C 43.619 2.015 45.239 1.232 47.016 0.73 C 48.749 0.231 50.565 0.006 52.423 0.006 C 54.336 0.006 56.198 0.255 57.947 0.859 C 59.601 1.43 61.122 2.263 62.421 3.416 L 62.427 3.421 L 62.433 3.426 C 62.66 3.629 62.877 3.84 63.086 4.058 C 63.316 3.791 63.557 3.534 63.811 3.287 C 64.956 2.173 66.301 1.295 67.848 0.743 C 69.22 0.251 70.667 -0.001 72.124 0 C 73.399 0 74.698 0.155 75.937 0.554 L 101.48 0.559 L 101.297 1.708 C 103.532 0.474 106.135 0 108.818 0 C 112.245 0 115.598 0.674 118.175 2.732 C 120.939 4.941 122.031 8.115 121.988 11.462 L 121.935 15.662 L 120.219 15.662 C 120.277 15.787 120.332 15.914 120.384 16.043 C 120.922 17.361 121.129 18.747 121.129 20.11 C 121.129 23.45 119.958 26.481 117.428 28.767 C 114.79 31.151 111.23 31.946 107.575 31.946 C 104.989 31.946 102.471 31.574 100.27 30.575 L 100.125 31.482 L 80.316 31.482 L 80.318 31.47 L 72.72 31.47 C 71.632 31.797 70.503 31.941 69.371 31.941 C 66.472 31.941 63.731 31.034 61.578 28.934 C 61.35 28.713 61.136 28.484 60.937 28.248 C 60.693 28.465 60.439 28.674 60.174 28.875 C 57.306 31.051 53.846 31.994 50.106 31.994 C 48.192 31.994 46.346 31.744 44.624 31.181 C 42.948 30.632 41.409 29.817 40.08 28.694 L 40.074 28.689 L 40.067 28.683 C 39.697 28.369 39.347 28.032 39.018 27.674 C 38.591 28.109 38.132 28.512 37.646 28.881 C 34.778 31.057 31.318 32 27.578 32 C 25.663 32 23.817 31.75 22.096 31.186 C 21.372 30.951 20.667 30.659 19.989 30.314 L 19.803 31.482 Z M 20.71 25.771 C 21.487 26.347 22.393 26.806 23.428 27.145 C 24.646 27.543 26.031 27.746 27.578 27.746 C 30.587 27.746 33.084 26.996 35.061 25.496 C 35.681 25.024 36.233 24.469 36.701 23.846 C 37.598 22.658 38.241 21.185 38.627 19.426 C 38.692 19.135 38.748 18.838 38.798 18.533 L 39.27 15.616 C 39.384 14.985 39.461 14.462 39.509 14.033 C 39.533 13.79 39.55 13.529 39.562 13.249 L 39.562 13.241 C 39.57 13.029 39.575 12.807 39.575 12.574 C 39.575 11.372 39.359 10.259 38.93 9.23 C 38.738 8.78 38.504 8.35 38.232 7.945 C 37.896 7.446 37.499 6.992 37.049 6.593 C 36.23 5.866 35.222 5.295 34.015 4.878 C 32.809 4.462 31.436 4.26 29.889 4.26 C 28.372 4.26 26.957 4.444 25.655 4.82 C 24.353 5.188 23.207 5.748 22.215 6.492 C 21.224 7.236 20.413 8.194 19.767 9.361 L 19.751 9.39 C 19.115 10.557 18.666 11.915 18.412 13.474 L 17.898 16.514 C 17.848 16.994 17.806 17.422 17.769 17.8 L 17.749 18.014 C 17.704 18.485 17.682 18.958 17.684 19.431 C 17.684 19.904 17.719 20.376 17.788 20.843 C 17.894 21.538 18.082 22.196 18.352 22.818 C 18.79 23.837 19.46 24.74 20.311 25.454 C 20.44 25.563 20.573 25.669 20.71 25.771 Z M 16.158 4.813 L 8.592 4.813 L 5.003 27.228 L 16.158 27.228 L 17.274 20.198 L 13.71 20.198 Z M 31.268 18.086 L 31.913 14.253 C 31.998 13.717 32.042 13.176 32.044 12.634 C 32.044 11.783 31.842 11.105 31.441 10.61 C 31.042 10.117 30.384 9.866 29.465 9.866 C 27.518 9.866 26.354 11.158 25.984 13.742 L 25.381 17.616 C 25.296 18.137 25.252 18.665 25.249 19.193 C 25.249 20.104 25.44 20.818 25.828 21.342 C 26.216 21.866 26.897 22.127 27.871 22.127 C 28.844 22.127 29.596 21.794 30.128 21.127 C 30.659 20.461 31.042 19.449 31.268 18.086 Z M 40.433 16.514 C 40.382 16.994 40.341 17.422 40.304 17.801 L 40.283 18.014 C 40.26 18.251 40.241 18.5 40.227 18.762 L 40.227 18.765 C 40.217 18.977 40.211 19.197 40.211 19.426 C 40.211 20.651 40.433 21.782 40.88 22.812 C 41.063 23.238 41.287 23.646 41.55 24.028 C 41.915 24.556 42.348 25.034 42.839 25.449 C 43.698 26.174 44.738 26.74 45.956 27.139 C 47.174 27.538 48.56 27.74 50.106 27.74 C 53.116 27.74 55.612 26.99 57.589 25.49 C 58.07 25.125 58.51 24.709 58.902 24.25 C 59.488 23.563 59.977 22.77 60.373 21.87 C 60.569 21.422 60.742 20.95 60.891 20.449 C 61.077 19.818 61.223 19.176 61.327 18.526 L 61.476 17.616 L 53.874 17.616 L 53.796 18.08 C 53.764 18.271 53.73 18.455 53.692 18.632 C 53.459 19.72 53.113 20.548 52.657 21.122 C 52.125 21.788 51.372 22.122 50.399 22.122 C 49.425 22.122 48.745 21.859 48.357 21.336 C 47.968 20.812 47.777 20.098 47.777 19.187 C 47.777 18.705 47.819 18.182 47.908 17.61 L 48.512 13.742 C 48.882 11.158 50.046 9.866 51.993 9.866 C 52.913 9.866 53.57 10.117 53.97 10.61 C 54.167 10.854 54.317 11.143 54.418 11.476 C 54.521 11.817 54.573 12.204 54.573 12.634 C 54.573 12.882 54.565 13.124 54.548 13.362 C 54.528 13.667 54.492 13.965 54.442 14.253 L 54.418 14.378 L 61.99 14.378 C 62.004 14.278 62.014 14.182 62.024 14.093 L 62.024 14.091 L 62.031 14.027 C 62.06 13.733 62.079 13.439 62.088 13.144 L 62.088 13.131 C 62.094 12.95 62.097 12.763 62.097 12.569 C 62.097 12.078 62.061 11.602 61.99 11.14 C 61.89 10.482 61.709 9.838 61.452 9.223 C 61.256 8.754 61.012 8.307 60.724 7.887 C 60.397 7.412 60.013 6.977 59.583 6.593 C 58.765 5.866 57.756 5.295 56.549 4.878 C 55.343 4.462 53.97 4.26 52.424 4.26 C 50.907 4.26 49.491 4.444 48.189 4.82 C 46.881 5.188 45.741 5.748 44.75 6.492 C 44.121 6.966 43.561 7.524 43.087 8.151 C 42.802 8.526 42.54 8.929 42.301 9.361 C 41.783 10.304 41.388 11.374 41.119 12.574 C 41.055 12.866 40.996 13.166 40.946 13.474 Z M 63.612 13.362 C 63.611 13.368 63.61 13.373 63.609 13.378 L 62.964 17.318 C 62.883 17.797 62.821 18.279 62.779 18.762 L 62.779 18.763 C 62.731 19.324 62.707 19.886 62.707 20.449 C 62.707 22.218 63.034 23.662 63.689 24.779 C 63.927 25.187 64.219 25.56 64.558 25.889 C 65.788 27.091 67.395 27.686 69.371 27.686 C 69.947 27.686 70.487 27.633 70.991 27.525 C 71.336 27.452 71.675 27.349 72.002 27.217 C 72.353 27.074 72.688 26.894 73.002 26.681 C 73.477 26.359 73.913 25.983 74.303 25.562 C 74.754 25.076 75.147 24.538 75.474 23.961 C 75.4 24.618 75.343 25.277 75.305 25.937 C 75.277 26.363 75.262 26.79 75.26 27.217 L 82.742 27.217 C 82.747 27.086 82.755 26.955 82.762 26.821 C 82.863 25.07 83.118 22.971 83.518 20.533 L 86.008 4.807 L 78.442 4.807 L 78.442 4.814 L 77.97 7.814 C 77.719 7.066 77.263 6.386 76.606 5.779 C 76.432 5.619 76.249 5.467 76.06 5.326 C 75.786 5.123 75.491 4.952 75.179 4.814 L 75.166 4.807 C 74.846 4.667 74.515 4.556 74.175 4.475 L 74.174 4.475 C 73.564 4.328 72.881 4.254 72.124 4.254 C 71.151 4.254 70.201 4.421 69.288 4.748 C 68.368 5.076 67.538 5.605 66.792 6.331 C 66.309 6.808 65.883 7.34 65.524 7.915 C 65.28 8.298 65.05 8.713 64.833 9.158 C 64.365 10.12 64.006 11.259 63.75 12.569 C 63.7 12.826 63.653 13.091 63.612 13.362 Z M 71.175 13.598 L 70.488 17.628 C 70.404 18.138 70.36 18.653 70.356 19.17 C 70.356 21.08 71.229 22.038 72.978 22.038 C 73.922 22.038 74.692 21.705 75.277 21.033 C 75.862 20.36 76.256 19.407 76.459 18.182 L 77.062 14.366 C 77.122 14.057 77.159 13.777 77.17 13.534 C 77.188 13.289 77.194 13.01 77.194 12.7 C 77.194 11.783 76.967 11.063 76.507 10.534 C 76.048 10.003 75.361 9.742 74.441 9.742 C 73.581 9.742 72.877 10.039 72.333 10.64 C 71.79 11.242 71.402 12.23 71.175 13.598 Z M 96.48 27.228 L 97.597 20.198 L 94.026 20.198 L 96.48 4.813 L 88.908 4.813 L 85.32 27.228 Z M 100.003 9.82 C 99.916 10.192 99.855 10.569 99.822 10.95 C 99.8 11.211 99.788 11.479 99.788 11.754 C 99.788 13.467 100.314 14.854 101.359 15.908 L 101.39 15.939 C 101.718 16.265 102.074 16.562 102.454 16.827 C 103.175 17.335 104.037 17.788 105.037 18.187 C 105.326 18.303 105.627 18.414 105.939 18.521 C 106.445 18.705 106.947 18.902 107.443 19.112 C 107.901 19.306 108.281 19.483 108.584 19.646 L 108.601 19.655 C 108.761 19.742 108.898 19.841 109.013 19.951 C 109.315 20.237 109.468 20.598 109.468 21.033 C 109.468 21.521 109.301 21.937 108.972 22.265 C 108.644 22.598 108.136 22.765 107.443 22.765 C 107.26 22.765 107.087 22.754 106.926 22.734 C 106.92 22.734 106.915 22.732 106.91 22.731 C 106.353 22.658 105.935 22.459 105.658 22.134 C 105.466 21.906 105.316 21.615 105.211 21.258 C 105.164 21.1 105.128 20.938 105.101 20.774 C 105.07 20.582 105.048 20.388 105.037 20.193 L 98.116 20.193 L 98.117 20.281 C 98.118 20.474 98.125 20.665 98.136 20.85 C 98.224 22.264 98.602 23.462 99.27 24.447 C 99.617 24.955 100.039 25.407 100.523 25.788 C 100.668 25.903 100.82 26.014 100.977 26.118 C 102.56 27.171 104.756 27.693 107.575 27.693 C 110.698 27.693 113.027 27.002 114.562 25.615 C 116.097 24.229 116.861 22.395 116.861 20.11 C 116.861 19.17 116.717 18.348 116.431 17.646 C 116.119 16.89 115.644 16.213 115.04 15.662 C 114.485 15.144 113.815 14.694 113.033 14.301 C 112.375 13.974 111.701 13.679 111.014 13.417 C 110.724 13.305 110.421 13.193 110.107 13.081 L 109.916 13.01 C 109.535 12.868 109.157 12.719 108.781 12.562 C 108.348 12.378 107.988 12.209 107.7 12.051 C 107.496 11.946 107.315 11.801 107.168 11.624 C 106.976 11.382 106.875 11.08 106.882 10.771 C 106.882 10.325 107.032 9.944 107.336 9.641 C 107.641 9.337 108.124 9.182 108.781 9.182 C 108.941 9.182 109.092 9.192 109.235 9.211 L 109.264 9.215 C 110.164 9.346 110.719 9.866 110.928 10.771 L 110.93 10.779 L 110.942 10.836 C 110.979 11.012 111.003 11.204 111.014 11.408 L 117.72 11.408 C 117.722 11.317 117.722 11.227 117.72 11.136 C 117.7 9.53 117.312 8.202 116.558 7.154 C 116.259 6.74 115.905 6.369 115.505 6.051 C 114 4.85 111.773 4.254 108.818 4.254 C 105.891 4.254 103.657 4.938 102.112 6.314 C 101.034 7.266 100.331 8.436 100.003 9.82 Z"
            fill="rgb(0,0,0)"/>
    <path
            d="M 16.159 27.228 L 17.275 20.198 L 13.711 20.198 L 16.159 4.813 L 8.593 4.813 L 5.004 27.228 Z M 96.48 27.228 L 97.598 20.198 L 94.027 20.198 L 96.48 4.813 L 88.909 4.813 L 85.32 27.228 Z M 37.049 6.593 C 36.231 5.866 35.222 5.295 34.016 4.878 C 32.81 4.462 31.436 4.26 29.89 4.26 C 28.373 4.26 26.957 4.444 25.656 4.819 C 24.354 5.188 23.208 5.747 22.216 6.491 C 21.225 7.235 20.413 8.194 19.768 9.361 C 19.123 10.533 18.669 11.902 18.412 13.473 L 17.899 16.514 C 17.839 17.086 17.791 17.586 17.749 18.014 C 17.705 18.485 17.683 18.958 17.684 19.43 C 17.684 20.657 17.905 21.788 18.353 22.818 C 18.79 23.837 19.461 24.74 20.311 25.454 C 21.171 26.181 22.21 26.746 23.429 27.145 C 24.646 27.543 26.032 27.746 27.578 27.746 C 30.588 27.746 33.084 26.996 35.061 25.496 C 37.037 23.996 38.286 21.675 38.799 18.532 L 39.27 15.616 C 39.384 14.985 39.462 14.461 39.51 14.032 C 39.551 13.604 39.575 13.116 39.575 12.574 C 39.575 11.372 39.36 10.259 38.931 9.23 C 38.489 8.2 37.867 7.319 37.049 6.593 Z M 31.914 14.253 L 31.269 18.086 C 31.042 19.449 30.66 20.461 30.129 21.127 C 29.597 21.794 28.845 22.127 27.871 22.127 C 26.898 22.127 26.217 21.866 25.829 21.342 C 25.441 20.818 25.25 20.104 25.25 19.193 C 25.25 18.711 25.292 18.187 25.381 17.616 L 25.984 13.741 C 26.354 11.158 27.519 9.866 29.465 9.866 C 30.385 9.866 31.042 10.116 31.442 10.61 C 31.842 11.104 32.045 11.783 32.045 12.634 C 32.042 13.176 31.999 13.717 31.914 14.253 Z M 108.782 9.182 C 110.185 9.182 110.932 9.926 111.015 11.408 L 117.721 11.408 C 117.751 9.039 117.011 7.254 115.506 6.051 C 114.001 4.849 111.774 4.254 108.818 4.254 C 105.892 4.254 103.658 4.938 102.112 6.314 C 100.565 7.682 99.789 9.498 99.789 11.754 C 99.789 13.467 100.314 14.854 101.36 15.908 C 102.405 16.967 103.934 17.836 105.939 18.521 C 107.116 18.955 107.994 19.33 108.585 19.646 C 109.17 19.961 109.469 20.426 109.469 21.032 C 109.469 21.52 109.302 21.937 108.973 22.264 C 108.645 22.598 108.137 22.764 107.444 22.764 C 106.614 22.764 106.017 22.556 105.659 22.134 C 105.3 21.71 105.092 21.068 105.038 20.193 L 98.117 20.193 C 98.117 22.651 98.917 24.514 100.523 25.788 C 102.13 27.062 104.477 27.692 107.576 27.692 C 110.699 27.692 113.027 27.002 114.562 25.615 C 116.097 24.229 116.862 22.395 116.862 20.11 C 116.862 19.17 116.718 18.348 116.431 17.646 C 116.137 16.934 115.698 16.292 115.142 15.759 C 114.568 15.199 113.864 14.718 113.034 14.301 C 112.204 13.885 111.23 13.479 110.107 13.081 C 109.045 12.688 108.244 12.349 107.701 12.051 C 107.158 11.759 106.883 11.331 106.883 10.771 C 106.883 10.325 107.033 9.944 107.337 9.64 C 107.642 9.337 108.125 9.182 108.782 9.182 Z M 78.443 4.814 L 77.971 7.814 C 77.655 6.873 77.016 6.039 76.061 5.326 C 75.099 4.611 73.791 4.254 72.124 4.254 C 71.152 4.254 70.202 4.421 69.288 4.748 C 68.369 5.076 67.538 5.605 66.792 6.331 C 66.045 7.058 65.395 8.003 64.833 9.158 C 64.272 10.313 63.866 11.723 63.609 13.378 L 62.965 17.318 C 62.792 18.353 62.706 19.4 62.708 20.449 C 62.708 22.878 63.323 24.693 64.559 25.889 C 65.789 27.091 67.395 27.686 69.372 27.686 C 70.805 27.686 72.018 27.354 73.003 26.681 C 73.994 26.009 74.818 25.103 75.475 23.961 C 75.415 24.473 75.367 25.032 75.325 25.633 C 75.286 26.16 75.264 26.688 75.26 27.217 L 82.742 27.217 C 82.826 25.389 83.088 23.157 83.519 20.532 L 86.008 4.807 L 78.443 4.807 Z M 77.171 13.534 C 77.159 13.777 77.122 14.057 77.063 14.366 L 76.46 18.182 C 76.257 19.407 75.863 20.36 75.278 21.032 C 74.692 21.705 73.922 22.038 72.978 22.038 C 71.229 22.038 70.357 21.08 70.357 19.17 C 70.357 18.711 70.399 18.199 70.489 17.628 L 71.175 13.598 C 71.402 12.23 71.791 11.242 72.334 10.64 C 72.877 10.039 73.582 9.742 74.442 9.742 C 75.361 9.742 76.048 10.003 76.508 10.534 C 76.968 11.063 77.195 11.783 77.195 12.7 C 77.195 13.009 77.188 13.289 77.171 13.533 Z M 59.583 6.593 C 58.765 5.866 57.757 5.295 56.549 4.878 C 55.344 4.462 53.971 4.26 52.424 4.26 C 50.907 4.26 49.492 4.444 48.19 4.819 C 46.882 5.188 45.742 5.747 44.751 6.491 C 43.759 7.235 42.947 8.194 42.303 9.361 C 41.657 10.533 41.203 11.902 40.946 13.473 L 40.433 16.514 C 40.373 17.086 40.326 17.586 40.284 18.014 C 40.242 18.443 40.212 18.913 40.212 19.425 C 40.212 20.651 40.433 21.782 40.881 22.812 C 41.319 23.831 41.989 24.734 42.84 25.449 C 43.699 26.174 44.739 26.74 45.956 27.138 C 47.175 27.538 48.56 27.74 50.107 27.74 C 53.117 27.74 55.613 26.99 57.589 25.49 C 59.566 23.99 60.814 21.669 61.327 18.526 L 61.477 17.616 L 53.875 17.616 L 53.797 18.08 C 53.57 19.443 53.188 20.454 52.657 21.122 C 52.125 21.788 51.373 22.122 50.4 22.122 C 49.426 22.122 48.745 21.859 48.357 21.336 C 47.969 20.812 47.778 20.098 47.778 19.187 C 47.778 18.705 47.82 18.181 47.909 17.61 L 48.513 13.741 C 48.883 11.158 50.047 9.866 51.994 9.866 C 52.913 9.866 53.57 10.116 53.971 10.61 C 54.37 11.104 54.573 11.783 54.573 12.634 C 54.573 13.199 54.532 13.741 54.442 14.253 L 54.418 14.378 L 61.99 14.378 C 62.008 14.253 62.02 14.134 62.032 14.026 C 62.074 13.598 62.098 13.11 62.098 12.569 C 62.098 11.366 61.883 10.253 61.453 9.223 C 61.035 8.218 60.396 7.319 59.583 6.593 Z"
            fill="hsl(0, 0%, 100%)"/>
</svg>